<?xml version="1.0" encoding="UTF-8"?>
<svg xmlns="http://www.w3.org/2000/svg" viewBox="0 0 520 320" role="img" aria-label="Home Care 365">
  <defs>
    <linearGradient id="blueGrad" x1="0%" y1="0%" x2="100%" y2="100%">
      <stop offset="0%" stop-color="#1a7fd4"/>
      <stop offset="100%" stop-color="#0d5a9e"/>
    </linearGradient>
    <linearGradient id="greenGrad" x1="0%" y1="0%" x2="100%" y2="0%">
      <stop offset="0%" stop-color="#6ab82e"/>
      <stop offset="100%" stop-color="#4a9420"/>
    </linearGradient>
  </defs>
  <rect width="520" height="320" fill="#f8faf5"/>
  <g transform="translate(210 20)">
    <path d="M-55 75 Q-75 45 -55 25 L-25 5 Q0 -5 25 5 L55 25 Q75 45 55 75 L0 95 Z" fill="none" stroke="url(#greenGrad)" stroke-width="5"/>
    <path d="M-70 55 Q-40 15 0 25 Q40 15 70 55" fill="none" stroke="url(#blueGrad)" stroke-width="4"/>
    <path d="M-35 10 L35 10 L45 55 L-45 55 Z" fill="none" stroke="url(#blueGrad)" stroke-width="4" stroke-linejoin="round"/>
    <rect x="-12" y="28" width="24" height="20" rx="2" fill="none" stroke="url(#greenGrad)" stroke-width="3"/>
    <line x1="-6" y1="28" x2="-6" y2="48" stroke="#6ab82e" stroke-width="2"/>
    <line x1="6" y1="28" x2="6" y2="48" stroke="#6ab82e" stroke-width="2"/>
    <line x1="-12" y1="38" x2="12" y2="38" stroke="#6ab82e" stroke-width="2"/>
    <path d="M-28 55 L-18 20 L-8 55" fill="none" stroke="url(#blueGrad)" stroke-width="3" stroke-linecap="round"/>
    <rect x="12" y="42" width="18" height="14" rx="3" fill="none" stroke="url(#blueGrad)" stroke-width="3"/>
    <circle cx="21" cy="32" r="2" fill="#1a7fd4"/>
    <circle cx="17" cy="28" r="1.5" fill="#1a7fd4"/>
    <circle cx="25" cy="29" r="1.2" fill="#6ab82e"/>
    <path d="M-48 48 Q-52 38 -58 32" fill="none" stroke="url(#greenGrad)" stroke-width="3"/>
    <ellipse cx="-52" cy="30" rx="8" ry="5" fill="#6ab82e" transform="rotate(-25 -52 30)"/>
    <ellipse cx="-58" cy="36" rx="7" ry="4" fill="#4a9420" transform="rotate(-40 -58 36)"/>
    <path d="M42 18 L48 8 M48 18 L54 10 M50 28 L58 22" stroke="#1a7fd4" stroke-width="2" stroke-linecap="round"/>
    <path d="M52 12 L58 6 M56 16 L62 12" stroke="#6ab82e" stroke-width="2" stroke-linecap="round"/>
  </g>
  <text x="260" y="175" text-anchor="middle" font-family="Arial, Helvetica, sans-serif" font-size="42" font-weight="700">
    <tspan fill="#0056b3">Home </tspan><tspan fill="#0088ce">Care</tspan><tspan fill="#4caf50"> 365</tspan>
  </text>
  <line x1="120" y1="198" x2="180" y2="198" stroke="#4caf50" stroke-width="3"/>
  <line x1="340" y1="198" x2="400" y2="198" stroke="#4caf50" stroke-width="3"/>
  <text x="260" y="228" text-anchor="middle" font-family="Arial, Helvetica, sans-serif" font-size="15" font-weight="700" fill="#0056b3" letter-spacing="1.5">
    S&#7840;CH T&#7910; T&#194;M &#8211; &#7844;M T&#7910;NG NH&#192;
  </text>
</svg>
